<svg width="173" height="41" viewBox="0 0 173 41" fill="none" xmlns="http://www.w3.org/2000/svg">
<path d="M56.292 29.2891C57.249 29.2891 57.9714 29.501 58.459 29.9248C58.9512 30.3486 59.1973 31.0094 59.1973 31.9072V37H58.0557L57.748 35.9268H57.6934C57.4792 36.2002 57.2581 36.4258 57.0303 36.6035C56.8024 36.7812 56.5381 36.9134 56.2373 37C55.9411 37.0911 55.5788 37.1367 55.1504 37.1367C54.6992 37.1367 54.2959 37.0547 53.9404 36.8906C53.585 36.722 53.3047 36.4668 53.0996 36.125C52.8945 35.7832 52.792 35.3503 52.792 34.8262C52.792 34.0469 53.0814 33.4613 53.6602 33.0693C54.2435 32.6774 55.123 32.4609 56.2988 32.4199L57.6113 32.3721V31.9756C57.6113 31.4515 57.4883 31.0778 57.2422 30.8545C57.0007 30.6312 56.6589 30.5195 56.2168 30.5195C55.8385 30.5195 55.4717 30.5742 55.1162 30.6836C54.7607 30.793 54.4144 30.9274 54.0771 31.0869L53.5576 29.9521C53.9268 29.7562 54.346 29.5967 54.8154 29.4736C55.2894 29.3506 55.7816 29.2891 56.292 29.2891ZM57.6045 33.3838L56.627 33.418C55.8249 33.4453 55.262 33.582 54.9385 33.8281C54.6149 34.0742 54.4531 34.4115 54.4531 34.8398C54.4531 35.2135 54.5648 35.487 54.7881 35.6602C55.0114 35.8288 55.3053 35.9131 55.6699 35.9131C56.2259 35.9131 56.6862 35.7559 57.0508 35.4414C57.4199 35.1224 57.6045 34.6553 57.6045 34.04V33.3838ZM65.2812 29.2891C65.4089 29.2891 65.5479 29.2959 65.6982 29.3096C65.8486 29.3232 65.9785 29.3415 66.0879 29.3643L65.9375 30.8682C65.8418 30.8408 65.7233 30.8203 65.582 30.8066C65.4453 30.793 65.3223 30.7861 65.2129 30.7861C64.9258 30.7861 64.6523 30.834 64.3926 30.9297C64.1328 31.0208 63.9027 31.1621 63.7021 31.3535C63.5016 31.5404 63.3444 31.7751 63.2305 32.0576C63.1165 32.3402 63.0596 32.6683 63.0596 33.042V37H61.4463V29.4326H62.7041L62.9229 30.7656H62.998C63.1484 30.4967 63.3353 30.2507 63.5586 30.0273C63.7819 29.804 64.0371 29.6263 64.3242 29.4941C64.6159 29.3574 64.9349 29.2891 65.2812 29.2891ZM70.3057 35.8379C70.5153 35.8379 70.7227 35.8197 70.9277 35.7832C71.1328 35.7422 71.3197 35.6943 71.4883 35.6396V36.8564C71.3105 36.9339 71.0804 37 70.7979 37.0547C70.5153 37.1094 70.2214 37.1367 69.916 37.1367C69.4876 37.1367 69.1025 37.0661 68.7607 36.9248C68.4189 36.779 68.1478 36.5306 67.9473 36.1797C67.7467 35.8288 67.6465 35.3434 67.6465 34.7236V30.6562H66.6143V29.9385L67.7217 29.3711L68.248 27.751H69.2598V29.4326H71.4268V30.6562H69.2598V34.7031C69.2598 35.0859 69.3555 35.3708 69.5469 35.5576C69.7383 35.7445 69.9912 35.8379 70.3057 35.8379ZM78.8232 40.3633C77.7979 40.3633 77.0117 40.1787 76.4648 39.8096C75.918 39.4404 75.6445 38.9232 75.6445 38.2578C75.6445 37.793 75.7904 37.3988 76.082 37.0752C76.3737 36.7562 76.7907 36.5352 77.333 36.4121C77.1279 36.321 76.9502 36.1797 76.7998 35.9883C76.654 35.7923 76.5811 35.5758 76.5811 35.3389C76.5811 35.0563 76.6608 34.8148 76.8203 34.6143C76.9798 34.4137 77.2191 34.2201 77.5381 34.0332C77.1416 33.8646 76.8226 33.5911 76.5811 33.2129C76.3441 32.8301 76.2256 32.3812 76.2256 31.8662C76.2256 31.3193 76.3418 30.8545 76.5742 30.4717C76.8066 30.0843 77.1462 29.7904 77.5928 29.5898C78.0394 29.3848 78.5794 29.2822 79.2129 29.2822C79.3496 29.2822 79.4977 29.2913 79.6572 29.3096C79.8213 29.3232 79.9717 29.3415 80.1084 29.3643C80.2497 29.3825 80.3568 29.403 80.4297 29.4258H83.0479V30.3213L81.7627 30.5605C81.8857 30.7337 81.9837 30.932 82.0566 31.1553C82.1296 31.374 82.166 31.6133 82.166 31.873C82.166 32.6569 81.8949 33.2744 81.3525 33.7256C80.8148 34.1722 80.0719 34.3955 79.124 34.3955C78.8962 34.3864 78.6751 34.3682 78.4609 34.3408C78.2969 34.4411 78.1715 34.5527 78.085 34.6758C77.9984 34.7943 77.9551 34.9287 77.9551 35.0791C77.9551 35.2021 77.9984 35.3024 78.085 35.3799C78.1715 35.4528 78.2992 35.5075 78.4678 35.5439C78.641 35.5804 78.8506 35.5986 79.0967 35.5986H80.4023C81.2318 35.5986 81.8652 35.7741 82.3027 36.125C82.7402 36.4759 82.959 36.9909 82.959 37.6699C82.959 38.5312 82.6035 39.1943 81.8926 39.6592C81.1816 40.1286 80.1585 40.3633 78.8232 40.3633ZM78.8848 39.2354C79.4453 39.2354 79.917 39.1807 80.2998 39.0713C80.6826 38.9619 80.972 38.8047 81.168 38.5996C81.3639 38.3991 81.4619 38.1598 81.4619 37.8818C81.4619 37.6357 81.4004 37.4466 81.2773 37.3145C81.1543 37.1823 80.9697 37.0911 80.7236 37.041C80.4775 36.9909 80.1722 36.9658 79.8076 36.9658H78.6182C78.3219 36.9658 78.0599 37.0114 77.832 37.1025C77.6042 37.1982 77.4264 37.335 77.2988 37.5127C77.1758 37.6904 77.1143 37.9046 77.1143 38.1553C77.1143 38.5016 77.2669 38.7682 77.5723 38.9551C77.8822 39.1419 78.3197 39.2354 78.8848 39.2354ZM79.1992 33.3428C79.6686 33.3428 80.0173 33.2152 80.2451 32.96C80.473 32.7002 80.5869 32.3356 80.5869 31.8662C80.5869 31.3558 80.4684 30.973 80.2314 30.7178C79.999 30.4626 79.6527 30.335 79.1924 30.335C78.7412 30.335 78.3971 30.4648 78.1602 30.7246C77.9277 30.9844 77.8115 31.3695 77.8115 31.8799C77.8115 32.3402 77.9277 32.7002 78.1602 32.96C78.3971 33.2152 78.7435 33.3428 79.1992 33.3428ZM87.3955 29.2891C88.3525 29.2891 89.0749 29.501 89.5625 29.9248C90.0547 30.3486 90.3008 31.0094 90.3008 31.9072V37H89.1592L88.8516 35.9268H88.7969C88.5827 36.2002 88.3617 36.4258 88.1338 36.6035C87.9059 36.7812 87.6416 36.9134 87.3408 37C87.0446 37.0911 86.6823 37.1367 86.2539 37.1367C85.8027 37.1367 85.3994 37.0547 85.0439 36.8906C84.6885 36.722 84.4082 36.4668 84.2031 36.125C83.998 35.7832 83.8955 35.3503 83.8955 34.8262C83.8955 34.0469 84.1849 33.4613 84.7637 33.0693C85.347 32.6774 86.2266 32.4609 87.4023 32.4199L88.7148 32.3721V31.9756C88.7148 31.4515 88.5918 31.0778 88.3457 30.8545C88.1042 30.6312 87.7624 30.5195 87.3203 30.5195C86.9421 30.5195 86.5752 30.5742 86.2197 30.6836C85.8643 30.793 85.5179 30.9274 85.1807 31.0869L84.6611 29.9521C85.0303 29.7562 85.4495 29.5967 85.9189 29.4736C86.3929 29.3506 86.8851 29.2891 87.3955 29.2891ZM88.708 33.3838L87.7305 33.418C86.9284 33.4453 86.3656 33.582 86.042 33.8281C85.7184 34.0742 85.5566 34.4115 85.5566 34.8398C85.5566 35.2135 85.6683 35.487 85.8916 35.6602C86.1149 35.8288 86.4089 35.9131 86.7734 35.9131C87.3294 35.9131 87.7897 35.7559 88.1543 35.4414C88.5234 35.1224 88.708 34.6553 88.708 34.04V33.3838ZM94.1631 37H92.5498V26.3633H94.1631V37ZM98.0732 37H96.46V26.3633H98.0732V37ZM103.385 29.2891C104.059 29.2891 104.638 29.4281 105.121 29.7061C105.604 29.984 105.976 30.3783 106.235 30.8887C106.495 31.3991 106.625 32.0098 106.625 32.7207V33.582H101.573C101.591 34.3158 101.787 34.8809 102.161 35.2773C102.539 35.6738 103.068 35.8721 103.747 35.8721C104.23 35.8721 104.663 35.8265 105.046 35.7354C105.433 35.6396 105.832 35.5007 106.242 35.3184V36.624C105.864 36.8018 105.479 36.9316 105.087 37.0137C104.695 37.0957 104.226 37.1367 103.679 37.1367C102.936 37.1367 102.282 36.9932 101.717 36.7061C101.156 36.4144 100.716 35.9814 100.397 35.4072C100.083 34.833 99.9258 34.1198 99.9258 33.2676C99.9258 32.4199 100.069 31.6999 100.356 31.1074C100.644 30.515 101.047 30.0638 101.566 29.7539C102.086 29.444 102.692 29.2891 103.385 29.2891ZM103.385 30.499C102.879 30.499 102.469 30.6631 102.154 30.9912C101.844 31.3193 101.662 31.8001 101.607 32.4336H105.053C105.048 32.0553 104.984 31.7204 104.861 31.4287C104.743 31.137 104.561 30.9092 104.314 30.7451C104.073 30.5811 103.763 30.499 103.385 30.499ZM112.271 29.2891C112.399 29.2891 112.538 29.2959 112.688 29.3096C112.839 29.3232 112.969 29.3415 113.078 29.3643L112.928 30.8682C112.832 30.8408 112.714 30.8203 112.572 30.8066C112.436 30.793 112.312 30.7861 112.203 30.7861C111.916 30.7861 111.643 30.834 111.383 30.9297C111.123 31.0208 110.893 31.1621 110.692 31.3535C110.492 31.5404 110.335 31.7751 110.221 32.0576C110.107 32.3402 110.05 32.6683 110.05 33.042V37H108.437V29.4326H109.694L109.913 30.7656H109.988C110.139 30.4967 110.326 30.2507 110.549 30.0273C110.772 29.804 111.027 29.6263 111.314 29.4941C111.606 29.3574 111.925 29.2891 112.271 29.2891ZM113.338 29.4326H115.088L116.64 33.7529C116.708 33.9489 116.77 34.1426 116.824 34.334C116.883 34.5208 116.934 34.7054 116.975 34.8877C117.02 35.07 117.057 35.2523 117.084 35.4346H117.125C117.171 35.1976 117.234 34.9333 117.316 34.6416C117.403 34.3454 117.499 34.0492 117.604 33.7529L119.094 29.4326H120.823L117.576 38.0391C117.389 38.5312 117.159 38.9505 116.886 39.2969C116.617 39.6478 116.298 39.9121 115.929 40.0898C115.56 40.2721 115.138 40.3633 114.664 40.3633C114.436 40.3633 114.238 40.3496 114.069 40.3223C113.901 40.2995 113.757 40.2744 113.639 40.2471V38.9619C113.734 38.9847 113.855 39.0052 114.001 39.0234C114.147 39.0417 114.297 39.0508 114.452 39.0508C114.739 39.0508 114.988 38.9938 115.197 38.8799C115.407 38.766 115.585 38.6042 115.73 38.3945C115.876 38.1895 115.997 37.9548 116.093 37.6904L116.359 36.9795L113.338 29.4326Z" fill="white"/>
<path d="M0 21.5989H11.6611C16.2601 21.5989 18.6142 19.5161 18.6142 15.5512V15.4895C18.6142 12.5428 17.1175 10.7532 14.2334 10.244V9.96634C16.6498 9.50351 17.9126 7.92987 17.9126 5.36886V5.29173C17.9126 1.80505 15.7145 0 11.4117 0H0V21.5989ZM4.59897 8.84011V3.0547H10.0398C12.2379 3.0547 13.3292 4.01122 13.3292 5.89341V5.95512C13.3292 7.86816 12.2379 8.84011 10.0398 8.84011H4.59897ZM4.59897 18.5288V11.648H10.1801C12.5965 11.648 13.7969 12.7896 13.7969 15.0266V15.0884C13.7969 17.3717 12.5965 18.5288 10.1801 18.5288H4.59897Z" fill="white"/>
<path d="M22.9462 0V21.5989H27.4828V0H22.9462Z" fill="white"/>
<path d="M36.9751 22C40.6387 22 43.3046 20.3801 44.2867 17.6339L44.5985 17.7111C44.0061 20.7041 44.6297 22 48.2153 22C48.6674 22 49.1195 21.9537 49.4937 21.892L50.0237 19.223L49.2443 19.2076C48.3868 19.1921 48.1374 18.9916 48.1374 17.8962V10.4755C48.1374 6.80365 45.6742 5.04488 40.4205 5.04488C34.8393 5.04488 32.0176 7.2202 32.2514 10.9846L36.7257 11.3548C36.5386 8.87097 37.817 7.74474 40.3269 7.74474C42.5718 7.74474 43.6319 8.56241 43.6319 10.4292V11.3394L39.2045 12.1417C34.777 12.9593 31.8461 14.3478 31.8461 17.7419V17.7882C31.8461 20.4727 33.6857 22 36.9751 22ZM38.7835 19.007C37.2557 19.007 36.4295 18.467 36.4295 17.3562V17.3254C36.4295 15.7363 37.8793 15.0884 40.7478 14.533L43.6319 13.9776V14.7335C43.6319 17.2174 41.3714 19.007 38.7835 19.007Z" fill="white"/>
<path d="M53.8414 21.5989H58.378V14.0701C58.378 10.4292 60.1084 8.17672 62.9769 8.17672C65.1127 8.17672 66.1728 9.27209 66.1728 11.3703V21.5989H70.7095V10.2903C70.7095 6.89621 68.6984 5.10659 64.9568 5.10659C61.5583 5.10659 59.2354 6.58766 57.8635 9.67321L57.5517 9.53436C58.1753 7.69846 58.3936 6.60309 58.3936 5.39972H53.8414V21.5989Z" fill="white"/>
<path d="M84.2083 21.9846C89.5556 21.9846 92.5488 19.8555 93.0009 15.7363L88.4175 15.2272C88.2305 17.8191 86.7962 19.1304 84.2239 19.1304C81.3398 19.1304 79.8432 17.3408 79.8432 13.8079V13.0519C79.8432 9.59607 81.3554 7.85273 84.1771 7.85273C86.7806 7.85273 88.1369 9.28752 88.3396 12.1571L92.8606 11.648C92.502 7.28191 89.6179 5.01403 84.1927 5.01403C78.2998 5.01403 75.1974 7.86816 75.1974 13.3296V13.5302C75.1974 19.0842 78.2686 21.9846 84.2083 21.9846Z" fill="white"/>
<path d="M97.5201 21.5989H102.057V14.0701C102.057 10.4292 103.772 8.19215 106.656 8.19215C108.791 8.19215 109.852 9.27209 109.852 11.3703V21.5989H114.388V10.2903C114.388 6.89621 112.362 5.10659 108.636 5.10659C105.206 5.10659 102.899 6.58766 101.542 9.65778L101.215 9.53436C101.823 7.80645 102.041 6.52595 102.057 4.9986V0H97.5201V21.5989Z" fill="white"/>
<path d="M123.803 22C127.466 22 130.132 20.3801 131.114 17.6339L131.426 17.7111C130.833 20.7041 131.457 22 135.043 22C135.495 22 135.947 21.9537 136.321 21.892L136.851 19.223L136.072 19.2076C135.214 19.1921 134.965 18.9916 134.965 17.8962V10.4755C134.965 6.80365 132.502 5.04488 127.248 5.04488C121.667 5.04488 118.845 7.2202 119.079 10.9846L123.553 11.3548C123.366 8.87097 124.644 7.74474 127.154 7.74474C129.399 7.74474 130.459 8.56241 130.459 10.4292V11.3394L126.032 12.1417C121.604 12.9593 118.673 14.3478 118.673 17.7419V17.7882C118.673 20.4727 120.513 22 123.803 22ZM125.611 19.007C124.083 19.007 123.257 18.467 123.257 17.3562V17.3254C123.257 15.7363 124.707 15.0884 127.575 14.533L130.459 13.9776V14.7335C130.459 17.2174 128.199 19.007 125.611 19.007Z" fill="white"/>
<path d="M140.669 21.5989H145.205V14.8261C145.205 10.5989 146.53 9.04067 149.991 8.79383L152.221 8.62412L151.691 4.8906C148.027 5.1683 146.328 6.30996 144.644 9.67321L144.348 9.53436C145.081 7.37447 145.252 6.51052 145.221 5.39972H140.669V21.5989Z" fill="white"/>
<path d="M162.243 21.892C165.61 21.892 167.809 20.3492 168.915 17.5568L169.243 17.6648C168.713 19.3619 168.432 20.7041 168.417 21.5989H173V0H168.463V4.39691C168.463 6.09397 168.697 7.46704 169.258 9.3338L168.947 9.45722C167.84 6.68022 165.626 5.07574 162.243 5.07574C157.566 5.07574 155.103 7.89902 155.103 13.2987V13.6844C155.103 19.0687 157.566 21.892 162.243 21.892ZM163.958 19.115C161.152 19.115 159.686 17.3408 159.686 13.8387V13.129C159.686 9.6115 161.152 7.82188 163.958 7.82188C166.889 7.82188 168.463 9.70407 168.463 13.2062V13.7616C168.463 17.2482 166.889 19.115 163.958 19.115Z" fill="white"/>
</svg>
